<?xml version="1.0" encoding="utf-8"?>
<!-- Generator: Adobe Illustrator 25.4.1, SVG Export Plug-In . SVG Version: 6.00 Build 0)  -->
<svg version="1.1" id="Layer_1" xmlns="http://www.w3.org/2000/svg" xmlns:xlink="http://www.w3.org/1999/xlink" x="0px" y="0px"
	 viewBox="0 0 72.6 67.6" style="enable-background:new 0 0 72.6 67.6;" xml:space="preserve">
<style type="text/css">
	.st0{fill:none;}
	.st1{fill:#29ABE2;}
</style>
<g id="Rectangle_11" transform="translate(0 17)">
	<path class="st0" d="M18.4,8.9L18.4,8.9c3.3,0,6,2.7,6,6v9c0,3.3-2.7,6-6,6l0,0c-3.3,0-6-2.7-6-6v-9C12.4,11.6,15,8.9,18.4,8.9z"/>
	<path class="st1" d="M18.4,29.9c-3.3,0-6-2.7-6-6v-9c0-3.3,2.7-6,6-6s6,2.7,6,6v9C24.4,27.2,21.7,29.9,18.4,29.9z M18.4,10.9
		c-2.2,0-4,1.8-4,4v9c0,2.2,1.8,4,4,4s4-1.8,4-4v-9C22.4,12.7,20.6,10.9,18.4,10.9z"/>
</g>
<g id="Rectangle_12" transform="translate(16 12)">
	<path class="st0" d="M18.4,8.9L18.4,8.9c3.3,0,6,2.7,6,6v14c0,3.3-2.7,6-6,6l0,0c-3.3,0-6-2.7-6-6v-14C12.4,11.6,15,8.9,18.4,8.9z"
		/>
	<path class="st1" d="M18.4,34.9c-3.3,0-6-2.7-6-6v-14c0-3.3,2.7-6,6-6s6,2.7,6,6v14C24.4,32.2,21.7,34.9,18.4,34.9z M18.4,10.9
		c-2.2,0-4,1.8-4,4v14c0,2.2,1.8,4,4,4c2.2,0,4-1.8,4-4v-14C22.4,12.7,20.6,10.9,18.4,10.9z"/>
</g>
<g id="Rectangle_13" transform="translate(32)">
	<path class="st0" d="M18.4,8.9L18.4,8.9c3.3,0,6,2.7,6,6v26c0,3.3-2.7,6-6,6l0,0c-3.3,0-6-2.7-6-6v-26C12.4,11.6,15,8.9,18.4,8.9z"
		/>
	<path class="st1" d="M18.4,46.9c-3.3,0-6-2.7-6-6v-26c0-3.3,2.7-6,6-6s6,2.7,6,6v26C24.4,44.2,21.7,46.9,18.4,46.9z M18.4,10.9
		c-2.2,0-4,1.8-4,4v26c0,2.2,1.8,4,4,4s4-1.8,4-4v-26C22.4,12.7,20.6,10.9,18.4,10.9z"/>
</g>
</svg>
