<?xml version="1.0" encoding="utf-8"?>
<!-- Generator: Adobe Illustrator 25.4.1, SVG Export Plug-In . SVG Version: 6.00 Build 0)  -->
<svg version="1.1" id="Layer_1" xmlns="http://www.w3.org/2000/svg" xmlns:xlink="http://www.w3.org/1999/xlink" x="0px" y="0px"
	 viewBox="0 0 72.6 67.6" style="enable-background:new 0 0 72.6 67.6;" xml:space="preserve">
<style type="text/css">
	.st0{fill:none;}
	.st1{fill:none;stroke:#29ABE2;stroke-width:2;}
	.st2{fill:#29ABE2;}
</style>
<g id="Rectangle_39" transform="translate(11 19)">
	<path class="st0" d="M2.2,6.9h44l0,0v26c0,1.1-0.9,2-2,2h-40c-1.1,0-2-0.9-2-2V6.9L2.2,6.9z"/>
	<path class="st1" d="M4.2,7.9h40c0.6,0,1,0.4,1,1v24c0,0.6-0.4,1-1,1h-40c-0.6,0-1-0.4-1-1v-24C3.2,8.4,3.6,7.9,4.2,7.9z"/>
</g>
<g id="Polygon_1">
	<path class="st0" d="M34.1,7.6c0.7-0.4,1.5-0.4,2.1,0l26.1,16.6c0.9,0.6,1.2,1.8,0.6,2.8c-0.4,0.6-1,0.9-1.7,0.9H9
		c-1.1,0-2-0.9-2-2c0-0.7,0.3-1.3,0.9-1.7L34.1,7.6z"/>
	<path class="st2" d="M35.2,9.3L9,25.9h52.3L35.2,9.3C35.2,9.3,35.2,9.3,35.2,9.3 M35.2,7.3c0.4,0,0.7,0.1,1.1,0.3l26.1,16.6
		c1.7,1.1,0.9,3.7-1.1,3.7H9c-2,0-2.8-2.6-1.1-3.7L34.1,7.6C34.4,7.4,34.8,7.3,35.2,7.3z"/>
</g>
</svg>
