<?xml version="1.0" encoding="utf-8"?>
<!-- Generator: Adobe Illustrator 25.4.1, SVG Export Plug-In . SVG Version: 6.00 Build 0)  -->
<svg version="1.1" id="Layer_1" xmlns="http://www.w3.org/2000/svg" xmlns:xlink="http://www.w3.org/1999/xlink" x="0px" y="0px"
	 viewBox="0 0 72.6 67.6" style="enable-background:new 0 0 72.6 67.6;" xml:space="preserve">
<style type="text/css">
	.st0{fill:none;}
	.st1{fill:none;stroke:#29ABE2;stroke-width:2;}
	.st2{enable-background:new    ;}
	.st3{fill:#29ABE2;}
</style>
<g id="Ellipse_2">
	<circle class="st0" cx="33.2" cy="30.5" r="22"/>
	<circle class="st1" cx="33.2" cy="30.5" r="21"/>
</g>
<g class="st2">
	<path class="st3" d="M20.3,25.6c0-3,2.4-5.4,5.5-5.4c3.1,0,5.5,2.3,5.5,5.4c0,3-2.4,5.4-5.5,5.4C22.7,31,20.3,28.6,20.3,25.6z
		 M29.4,25.6c0-2-1.5-3.6-3.6-3.6c-2.1,0-3.6,1.6-3.6,3.6c0,1.9,1.5,3.6,3.6,3.6C27.9,29.2,29.4,27.5,29.4,25.6z M38.7,20.4h2.1
		l-13,20.1h-2.1L38.7,20.4z M35.1,35.4c0-3,2.4-5.4,5.5-5.4c3.1,0,5.5,2.3,5.5,5.4c0,3-2.4,5.4-5.5,5.4
		C37.5,40.8,35.1,38.4,35.1,35.4z M44.2,35.4c0-2-1.5-3.6-3.6-3.6c-2.1,0-3.6,1.6-3.6,3.6c0,1.9,1.5,3.6,3.6,3.6
		C42.7,39,44.2,37.3,44.2,35.4z"/>
</g>
</svg>
